<svg xmlns="http://www.w3.org/2000/svg" viewBox="0 0 960 385"><defs><style>.cls-1,.cls-2{fill:#fff;}.cls-2,.cls-3{stroke:#000;}.cls-2,.cls-3,.cls-4,.cls-5{stroke-miterlimit:10;}.cls-2{stroke-width:6px;}.cls-3,.cls-4,.cls-5{fill:none;}.cls-3{stroke-width:4px;opacity:0.5;}.cls-4{stroke:red;}.cls-4,.cls-5{stroke-width:11px;stroke-dasharray:0 0 12 24;}.cls-5{stroke:blue;}</style></defs><title>envelope</title><g id="Layer_2" data-name="Layer 2"><g id="Layer_1-2" data-name="Layer 1"><rect class="cls-1" width="956.42" height="380"/><polygon class="cls-2" points="956.42 4.94 956.42 380 3.86 380 3.86 4.94 20 12 37 4.94 80 11 122 4.94 178 12 204 12 239 4.94 318 10 346 18 399 19 436 10 480.14 23 519 18 549 9 590 17 629 26 678 15 736 11 766 15 804 11 832 11 863 19 920 4.94 940 11 956.42 4.94"/><polyline class="cls-3" points="956.42 4.94 3.86 375 3.86 4.94 956.42 380"/><polyline class="cls-4" points="941 22 941 368 15 368 15 22"/><line class="cls-5" x1="34" y1="368" x2="960" y2="368"/><line class="cls-5" x1="15" y1="26" x2="15" y2="372"/><line class="cls-5" x1="941" y1="39" x2="941" y2="385"/></g></g></svg>